<svg xmlns="http://www.w3.org/2000/svg" viewBox="0 0 67.97 67.97" width="36" height="36"><path d="M68 0v68L45.5 45.5l-8.08-8.08a.78.78 0 0 1 0-1.16c.39-.39 1.64-1.61 3.18-3.15a3.93 3.93 0 0 0 1.36-2.91c2.85 2.28 6.52 4 10.94-.43a6.26 6.26 0 0 0 1.9-4.28 5.81 5.81 0 0 0 2.94-3.16s-.66-1.28-4.35-2a15.38 15.38 0 0 0-2.49-3.27 16 16 0 0 0-3.27-2.5c-.71-3.69-2-4.34-2-4.34a5.82 5.82 0 0 0-3.16 2.93 6.33 6.33 0 0 0-4.28 1.9c-4.42 4.42-2.71 8.1-.44 10.94a3.6 3.6 0 0 0-2.27.81 3.45 3.45 0 0 1-2.4-4.3 3.46 3.46 0 0 0-.58-3s-1.11-1.14-.78.62a4.35 4.35 0 0 1-.4 3s-1.56 2.92 2.33 5.43c-1 1-1.67 1.69-1.94 2a.78.78 0 0 1-1.16 0L0 0z" fill="#4c86c6" fill-rule="evenodd"/></svg>