<svg xmlns="http://www.w3.org/2000/svg" viewBox="0 0 31 34" width="31" height="34"><path d="M28.92 7L17.56.54a4.22 4.22 0 0 0-4.13 0L2.07 7A4.08 4.08 0 0 0 0 10.55v12.9A4.08 4.08 0 0 0 2.07 27l11.36 6.47a4.22 4.22 0 0 0 4.13 0L28.92 27A4.07 4.07 0 0 0 31 23.45v-12.9A4.07 4.07 0 0 0 28.92 7zm-3.09 14.1a3 3 0 0 1-1.56 2.66l-7.22 4.12a3.15 3.15 0 0 1-3.09 0l-7.24-4.12a3.05 3.05 0 0 1-1.55-2.66v-8.2a3.05 3.05 0 0 1 1.55-2.66L14 6.12a3.15 3.15 0 0 1 3.09 0l7.22 4.12a3 3 0 0 1 1.56 2.66z" fill="#1e90ff"/><path d="M24.27 10.24l-7.22-4.12a3.15 3.15 0 0 0-3.09 0l-7.24 4.12a3.05 3.05 0 0 0-1.55 2.66v8.2a3.05 3.05 0 0 0 1.55 2.66L14 27.88a3.15 3.15 0 0 0 3.09 0l7.22-4.12a3 3 0 0 0 1.56-2.66v-8.2a3 3 0 0 0-1.6-2.66zm-3.6 8.51a2 2 0 0 1-1.05 1.77l-3.1 1.77a2 2 0 0 1-2 0l-3.1-1.77a2 2 0 0 1-1-1.77v-3.51a2.06 2.06 0 0 1 1-1.77l3.1-1.76a2 2 0 0 1 2 0l3.1 1.76a2.05 2.05 0 0 1 1.05 1.77z" fill="#a6d3ff"/></svg>